<svg width="52" height="52" viewBox="0 0 52 52" fill="none" xmlns="http://www.w3.org/2000/svg">
<path d="M26 0.799988C12.103 0.799988 0.799988 12.103 0.799988 26C0.799988 39.8969 12.103 51.2 26 51.2C39.8969 51.2 51.2 39.8969 51.2 26C51.2 12.103 39.8969 0.799988 26 0.799988ZM26 4.15999C38.0814 4.15999 47.84 13.9185 47.84 26C47.84 38.0814 38.0814 47.84 26 47.84C13.9185 47.84 4.15999 38.0814 4.15999 26C4.15999 13.9185 13.9185 4.15999 26 4.15999ZM17.6 15.36V36.64L36.64 26L17.6 15.36Z" fill="black"/>
</svg>
