<svg width="161" height="55" viewBox="0 0 161 55" fill="none" xmlns="http://www.w3.org/2000/svg">
<g clip-path="url(#clip0)">
<path d="M160.14 16.6H158.14V6.47H148.02V4.47H160.14V16.6Z" fill="white"/>
<path d="M14 43.69C14 49.36 13.26 54.21 6.64 54.21C1.15 54.21 -0.0299988 50.21 -0.0299988 46.88V46.7H2.44V46.94C2.44 49.2 3.29 52 6.8 52C10.67 52 11.65 49.18 11.65 44.12V39.54C10.78 42.06 9.17 43.17 6.27 43.17C2.51 43.17 0.0600012 40.71 0.0600012 33.94V20.72C0.0600012 13.97 3.24 11.72 6.89 11.72C9.99 11.72 11.53 13.45 11.89 14.88C11.89 14.07 12.01 13.01 12.07 12.22H14.13C14.07 13.71 14.01 16.74 14.01 20.8L14 43.69ZM2.5 20.79V33.68C2.5 38.54 3.85 40.87 6.55 40.87C11.03 40.87 11.71 35.8 11.71 31.24V22C11.71 17.47 11.22 14 7.05 14C3.67 14 2.5 16.73 2.5 20.79Z" fill="white"/>
<path d="M18.19 22.81C18.19 17.98 18.19 14.54 18.12 12.23H20.43C20.5 13.23 20.56 14.36 20.56 16.88C20.923 15.4913 21.7224 14.2559 22.8403 13.3558C23.9583 12.4556 25.3358 11.9383 26.77 11.88V14.88C22.63 14.94 20.56 18.53 20.56 23.33V43.19H18.19V22.81Z" fill="white"/>
<path d="M39.7 38.87C39.7 41.15 39.76 42.56 39.82 43.19H37.52C37.3554 42.2724 37.2717 41.3422 37.27 40.41C36.33 43.12 34.18 43.68 32.27 43.68C27.99 43.68 26.27 40.07 26.27 35.19V34.63C26.27 28.29 29.78 25.33 35.27 25.33H37.27V19.43C37.27 16.23 36.6 14.02 33.59 14.02C30.58 14.02 29.67 16.29 29.67 19.24V20.4H27.28V19.25C27.28 15.09 28.95 11.73 33.65 11.73C38.35 11.73 39.7 15.2 39.7 19.3V38.87ZM37.32 27.5H35.32C31.08 27.5 28.74 29.4 28.74 34.5V35.05C28.74 38.43 29.67 41.37 32.62 41.37C36.29 41.37 37.34 38.19 37.34 33.07L37.32 27.5Z" fill="white"/>
<path d="M56.27 33.94V34.37C56.27 39.46 54.97 43.68 49.54 43.68C44.66 43.68 43 40.12 43 34V20.49C43 15.05 45.15 11.73 49.79 11.73C54.79 11.73 56.27 15.49 56.27 19.93V21.29H53.83V20.47C53.83 17.21 53.28 13.91 49.73 13.91C46.73 13.91 45.43 16.12 45.43 20.91V34C45.43 37.5 46.11 41.48 49.6 41.48C52.55 41.48 53.83 39.75 53.83 34.36V33.91L56.27 33.94Z" fill="white"/>
<path d="M60.71 27.8V33.42C60.71 37.22 61.39 41.51 65.2 41.51C68.64 41.51 69.43 38.92 69.43 35.17V34.81H71.81V35.11C71.81 39.11 70.81 43.68 65.08 43.68C60.08 43.68 58.34 40.12 58.34 33.81V20.81C58.34 15.63 60.34 11.73 65.26 11.73C70.55 11.73 71.87 16.13 71.87 20.87V27.8H60.71ZM69.5 25.64V21C69.5 18.09 69.24 13.88 65.2 13.88C61.16 13.88 60.71 17.36 60.71 21.06V25.61L69.5 25.64Z" fill="white"/>
<path d="M77.36 0V15.25C77.792 14.1462 78.5654 13.2093 79.5674 12.576C80.5694 11.9428 81.7476 11.6464 82.93 11.73C87.46 11.73 88.76 15.14 88.76 19.66V43.19H86.38V20.19C86.38 17.29 86.13 14.04 82.51 14.04C78.22 14.04 77.36 17.59 77.36 23.12V43.19H75V0H77.36Z" fill="white"/>
<path d="M106 20.25V34.32C106 41.12 103 43.68 98.89 43.68C94.78 43.68 92 41.3 92 34.62V20.3C92 15.13 94.45 11.73 99.11 11.73C103.77 11.73 106 15.08 106 20.25ZM94.41 20.36V34.69C94.43 39 96 41.5 99 41.5C101.77 41.5 103.6 39.71 103.6 34.68V20.36C103.6 16.61 102.19 13.91 99.06 13.91C95.93 13.91 94.43 16.3 94.43 20.36H94.41Z" fill="white"/>
<path d="M122.73 35.54C122.73 38.97 122.73 41.88 122.79 43.19H120.54C120.48 42.69 120.41 41.02 120.41 39.67C119.6 42.58 117.86 43.67 115.08 43.67C112.9 43.67 109.19 43.1 109.19 35.92V12.23H111.57V35.29C111.57 39.84 112.74 41.44 115.5 41.44C117.85 41.44 120.35 40.08 120.35 32.18V12.23H122.73V35.54Z" fill="white"/>
<path d="M126.85 34.5V35.8C126.85 39.96 128.74 41.51 131.21 41.51C134.27 41.51 135.44 39.51 135.44 35.87C135.44 31.87 134.21 30.35 130.92 28.11C126.92 25.39 125.09 23.28 125.09 19.11C125.09 15.24 126.67 11.72 131.39 11.72C136.48 11.72 137.5 15.49 137.5 19.06V20.67H135.13V19.17C135.13 16.03 134.33 13.9 131.27 13.9C128.63 13.9 127.53 15.68 127.53 18.9C127.53 22.12 128.45 23.38 131.84 25.72C135.47 28.22 137.84 30.32 137.84 35.46C137.84 40.6 135.77 43.71 130.98 43.71C125.86 43.71 124.37 40.04 124.37 35.95V34.5H126.85Z" fill="white"/>
<path d="M142.31 27.8V33.42C142.31 37.22 142.99 41.51 146.79 41.51C150.24 41.51 151.03 38.92 151.03 35.17V34.81H153.41V35.11C153.41 39.11 152.41 43.68 146.67 43.68C141.72 43.68 139.93 40.12 139.93 33.81V20.81C139.93 15.63 141.93 11.73 146.86 11.73C152.15 11.73 153.47 16.13 153.47 20.87V27.8H142.31ZM151.1 25.64V21C151.1 18.09 150.84 13.88 146.79 13.88C142.74 13.88 142.31 17.36 142.31 21.06V25.61L151.1 25.64Z" fill="white"/>
</g>
<defs>
<clipPath id="clip0">
<rect width="160.14" height="54.21" fill="white"/>
</clipPath>
</defs>
</svg>
