<svg width="26" height="26" viewBox="0 0 26 26" fill="none" xmlns="http://www.w3.org/2000/svg">
<path d="M24.7 21.8C24.5 22.4 23.9 23.3 23.1 23.9C22.6 24.3 22.1 24.6 21.3 24.8C20.5 25 19.5 25.1 18.3 25.1H6.9C5.7 25.1 4.7 25 3.9 24.8C3.1 24.6 2.6 24.2 2.1 23.9C1.3 23.3 0.7 22.4 0.5 21.8C0 20.6 0 19.1 0 18.2V6.9C0 6 0 4.6 0.5 3.4C0.7 2.8 1.3 1.9 2.1 1.3C2.6 0.9 3.1 0.6 3.9 0.4C4.7 0.1 5.7 0 6.9 0H18.2C19.4 0 20.4 0.1 21.2 0.3C22 0.5 22.5 0.9 23 1.2C23.8 1.8 24.4 2.7 24.6 3.3C25.1 4.6 25.1 6 25.1 6.9V18.2C25.2 19.1 25.2 20.6 24.7 21.8ZM14.4 14.5C14 14.1 13.4 13.8 12.6 13.8C11.8 13.8 11.2 14.1 10.8 14.5C10.6 14.7 10.5 14.9 10.5 15.2C10.4 15.8 10.5 16.3 10.5 17.1C10.6 17.9 10.7 18.9 10.9 19.9C11 20.6 11.1 21 11.2 21.3C11.3 21.8 11.9 22.2 12.7 22.2C13.5 22.2 14 21.8 14.2 21.3C14.3 21 14.4 20.6 14.5 19.9C14.7 18.9 14.8 17.8 14.9 17.1C15 16.3 15 15.8 14.9 15.2C14.7 14.9 14.6 14.7 14.4 14.5ZM10.5 10.9C10.5 12 11.4 13 12.6 13C13.7 13 14.7 12.1 14.7 10.9C14.7 9.8 13.8 8.8 12.6 8.8C11.4 8.9 10.5 9.8 10.5 10.9ZM12.6 2.8C7.8 2.8 3.8 6.7 3.8 11.5C3.8 15.4 6.2 18.7 9.7 20C9.8 20 9.9 20 9.9 19.9C9.9 19.6 9.8 19.3 9.8 19C9.8 18.9 9.7 18.8 9.6 18.8C6.9 17.6 4.9 14.8 5 11.6C5 7.4 8.5 4 12.7 4C17 4 20.5 7.4 20.5 11.7C20.5 14.9 18.6 17.6 15.9 18.8C15.8 18.8 15.7 18.9 15.7 19C15.7 19.3 15.6 19.6 15.6 19.9C15.6 20 15.7 20.1 15.8 20C19.2 18.8 21.7 15.5 21.7 11.6C21.4 6.7 17.5 2.8 12.6 2.8ZM12.4 6.8C15.1 6.7 17.4 8.9 17.4 11.6C17.4 13 16.8 14.2 15.9 15.1C15.8 15.2 15.8 15.3 15.8 15.4C15.8 15.7 15.8 16 15.8 16.4C15.8 16.5 15.9 16.6 16 16.5C17.6 15.4 18.6 13.6 18.6 11.6C18.6 8.3 15.8 5.5 12.4 5.7C9.3 5.8 6.7 8.4 6.7 11.5C6.7 13.6 7.7 15.4 9.3 16.5C9.4 16.6 9.5 16.5 9.5 16.4C9.5 16 9.5 15.7 9.5 15.4C9.5 15.3 9.5 15.2 9.4 15.1C8.4 14.2 7.8 12.9 7.9 11.5C7.9 9 9.9 6.9 12.4 6.8Z" fill="white"/>
</svg>
