<svg width="48" height="48" viewBox="0 0 48 48" fill="none" xmlns="http://www.w3.org/2000/svg">
<path d="M47.0476 41.4851C46.6667 42.6269 45.5238 44.3396 44 45.4813C43.0476 46.2425 42.0952 46.8134 40.5714 47.194C39.0476 47.5746 37.1429 47.7649 34.8571 47.7649H13.1429C10.8571 47.7649 8.95238 47.5746 7.42857 47.194C5.90476 46.8134 4.95238 46.0522 4 45.4813C2.47619 44.3396 1.33333 42.6269 0.952381 41.4851C0 39.2015 0 36.347 0 34.6343V13.1306C0 11.4179 0 8.75373 0.952381 6.47015C1.33333 5.32836 2.47619 3.61567 4 2.47388C4.95238 1.71269 5.90476 1.14179 7.42857 0.761194C8.95238 0.190298 10.8571 0 13.1429 0H34.6667C36.9524 0 38.8571 0.190299 40.381 0.570896C41.9048 0.951493 42.8571 1.71269 43.8095 2.28358C45.3333 3.42537 46.4762 5.13806 46.8571 6.27985C47.8095 8.75373 47.8095 11.4179 47.8095 13.1306V34.6343C48 36.347 48 39.2015 47.0476 41.4851ZM27.4286 27.5933C26.6667 26.8321 25.5238 26.2612 24 26.2612C22.4762 26.2612 21.3333 26.8321 20.5714 27.5933C20.1905 27.9739 20 28.3545 20 28.9254C19.8095 30.0672 20 31.0187 20 32.541C20.1905 34.0634 20.381 35.9664 20.7619 37.8694C20.9524 39.2015 21.1429 39.9627 21.3333 40.5336C21.5238 41.4851 22.6667 42.2463 24.1905 42.2463C25.7143 42.2463 26.6667 41.4851 27.0476 40.5336C27.2381 39.9627 27.4286 39.2015 27.619 37.8694C28 35.9664 28.1905 33.8731 28.3809 32.541C28.5714 31.0187 28.5714 30.0672 28.3809 28.9254C28 28.3545 27.8095 27.9739 27.4286 27.5933ZM20 20.7425C20 22.8358 21.7143 24.7388 24 24.7388C26.0952 24.7388 28 23.0261 28 20.7425C28 18.6493 26.2857 16.7463 24 16.7463C21.7143 16.9366 20 18.6493 20 20.7425ZM24 5.32836C14.8571 5.32836 7.23809 12.75 7.23809 21.8843C7.23809 29.306 11.8095 35.5858 18.4762 38.0597C18.6667 38.0597 18.8571 38.0597 18.8571 37.8694C18.8571 37.2985 18.6667 36.7276 18.6667 36.1567C18.6667 35.9664 18.4762 35.7761 18.2857 35.7761C13.1429 33.4925 9.33333 28.1642 9.52381 22.0746C9.52381 14.0821 16.1905 7.61194 24.1905 7.61194C32.381 7.61194 39.0476 14.0821 39.0476 22.2649C39.0476 28.3545 35.4286 33.4925 30.2857 35.7761C30.0952 35.7761 29.9048 35.9664 29.9048 36.1567C29.9048 36.7276 29.7143 37.2985 29.7143 37.8694C29.7143 38.0597 29.9048 38.25 30.0952 38.0597C36.5714 35.7761 41.3333 29.4963 41.3333 22.0746C40.7619 12.75 33.3333 5.32836 24 5.32836ZM23.619 12.9403C28.7619 12.75 33.1429 16.9366 33.1429 22.0746C33.1429 24.7388 32 27.0224 30.2857 28.7351C30.0952 28.9254 30.0952 29.1157 30.0952 29.306C30.0952 29.8769 30.0952 30.4478 30.0952 31.209C30.0952 31.3993 30.2857 31.5896 30.4762 31.3993C33.5238 29.306 35.4286 25.8806 35.4286 22.0746C35.4286 15.7948 30.0952 10.4664 23.619 10.847C17.7143 11.0373 12.7619 15.9851 12.7619 21.8843C12.7619 25.8806 14.6667 29.306 17.7143 31.3993C17.9048 31.5896 18.0952 31.3993 18.0952 31.209C18.0952 30.4478 18.0952 29.8769 18.0952 29.306C18.0952 29.1157 18.0952 28.9254 17.9048 28.7351C16 27.0224 14.8571 24.5485 15.0476 21.8843C15.0476 17.1269 18.8571 13.1306 23.619 12.9403Z" fill="black"/>
</svg>
