<svg width="27" height="26" viewBox="0 0 27 26" fill="none" xmlns="http://www.w3.org/2000/svg">
<path d="M26.4065 22.5817C26.1998 23.2032 25.5796 24.1355 24.7526 24.757C24.2357 25.1713 23.7189 25.4821 22.8919 25.6892C22.065 25.8964 21.0313 26 19.7908 26H8.00658C6.76614 26 5.73243 25.8964 4.90547 25.6892C4.07851 25.4821 3.56166 25.0677 3.0448 24.757C2.21784 24.1355 1.59762 23.2032 1.39088 22.5817C0.874023 21.3386 0.874023 19.7849 0.874023 18.8526V7.14741C0.874023 6.21514 0.874023 4.76494 1.39088 3.52191C1.59762 2.9004 2.21784 1.96813 3.0448 1.34661C3.56166 0.932271 4.07851 0.621514 4.90547 0.414343C5.73243 0.103586 6.76614 0 8.00658 0H19.6874C20.9279 0 21.9616 0.103586 22.7886 0.310757C23.6155 0.517928 24.1324 0.932271 24.6492 1.24303C25.4762 1.86454 26.0964 2.79681 26.3032 3.41833C26.82 4.76494 26.82 6.21514 26.82 7.14741V18.8526C26.9234 19.7849 26.9234 21.3386 26.4065 22.5817ZM15.7594 15.0199C15.3459 14.6056 14.7257 14.2948 13.8987 14.2948C13.0717 14.2948 12.4515 14.6056 12.038 15.0199C11.8313 15.2271 11.7279 15.4343 11.7279 15.745C11.6246 16.3665 11.7279 16.8845 11.7279 17.7131C11.8313 18.5418 11.9347 19.5777 12.1414 20.6135C12.2448 21.3386 12.3481 21.753 12.4515 22.0637C12.5549 22.5817 13.1751 22.996 14.0021 22.996C14.829 22.996 15.3459 22.5817 15.5526 22.0637C15.656 21.753 15.7594 21.3386 15.8627 20.6135C16.0695 19.5777 16.1728 18.4382 16.2762 17.7131C16.3796 16.8845 16.3796 16.3665 16.2762 15.745C16.0695 15.4343 15.9661 15.2271 15.7594 15.0199ZM11.7279 11.2908C11.7279 12.4303 12.6583 13.4661 13.8987 13.4661C15.0358 13.4661 16.0695 12.5339 16.0695 11.2908C16.0695 10.1514 15.1391 9.11554 13.8987 9.11554C12.6583 9.21912 11.7279 10.1514 11.7279 11.2908ZM13.8987 2.9004C8.93692 2.9004 4.8021 6.94024 4.8021 11.9124C4.8021 15.9522 7.28299 19.3705 10.901 20.7171C11.0043 20.7171 11.1077 20.7171 11.1077 20.6135C11.1077 20.3028 11.0043 19.992 11.0043 19.6813C11.0043 19.5777 10.901 19.4741 10.7976 19.4741C8.00659 18.2311 5.93918 15.3307 6.04255 12.0159C6.04255 7.66534 9.66051 4.14343 14.0021 4.14343C18.447 4.14343 22.065 7.66534 22.065 12.1195C22.065 15.4343 20.1009 18.2311 17.3099 19.4741C17.2066 19.4741 17.1032 19.5777 17.1032 19.6813C17.1032 19.992 16.9998 20.3028 16.9998 20.6135C16.9998 20.7171 17.1032 20.8207 17.2066 20.7171C20.7212 19.4741 23.3054 16.0558 23.3054 12.0159C22.9953 6.94024 18.9639 2.9004 13.8987 2.9004ZM13.692 7.04383C16.483 6.94024 18.8605 9.21912 18.8605 12.0159C18.8605 13.4661 18.2403 14.7092 17.3099 15.6414C17.2066 15.745 17.2066 15.8486 17.2066 15.9522C17.2066 16.2629 17.2066 16.5737 17.2066 16.988C17.2066 17.0916 17.3099 17.1952 17.4133 17.0916C19.0672 15.9522 20.1009 14.0877 20.1009 12.0159C20.1009 8.59761 17.2066 5.69721 13.692 5.90438C10.4875 6.00797 7.79984 8.7012 7.79984 11.9124C7.79984 14.0876 8.83355 15.9522 10.4875 17.0916C10.5908 17.1952 10.6942 17.0916 10.6942 16.988C10.6942 16.5737 10.6942 16.2629 10.6942 15.9522C10.6942 15.8486 10.6942 15.745 10.5908 15.6414C9.55714 14.7092 8.93692 13.3625 9.04029 11.9124C9.04029 9.32271 11.1077 7.14741 13.692 7.04383Z" fill="#F4B468"/>
</svg>
