<svg width="89" height="89" viewBox="0 0 89 89" fill="none" xmlns="http://www.w3.org/2000/svg">
<path d="M44.4335 88.0997C20.3052 88.0997 0.655853 68.3281 0.655853 44.0498C0.655853 19.7715 20.3052 0 44.4335 0C68.5617 0 88.2111 19.7715 88.2111 44.0498C88.2111 68.3281 68.5617 88.0997 44.4335 88.0997ZM44.4335 2.90758C21.8945 2.90758 3.54546 21.3707 3.54546 44.0498C3.54546 66.729 21.8945 85.1921 44.4335 85.1921C66.9724 85.1921 85.3214 66.729 85.3214 44.0498C85.3214 21.3707 66.9724 2.90758 44.4335 2.90758Z" fill="white"/>
<path d="M44.4334 80.1039C24.7841 80.1039 8.74675 63.9668 8.74675 44.1952C8.74675 24.4237 24.7841 8.14124 44.4334 8.14124C64.0828 8.14124 80.1201 24.2783 80.1201 44.0499C80.1201 63.8214 64.2273 80.1039 44.4334 80.1039ZM44.4334 11.0488C26.3734 11.0488 11.6364 25.8775 11.6364 44.0499C11.6364 62.2222 26.3734 77.0509 44.4334 77.0509C62.4935 77.0509 77.2305 62.2222 77.2305 44.0499C77.2305 25.8775 62.4935 11.0488 44.4334 11.0488Z" fill="white"/>
</svg>
