<svg width="53" height="52" viewBox="0 0 53 52" fill="none" xmlns="http://www.w3.org/2000/svg">
<path d="M26.2312 0C11.7523 0 0 11.6418 0 25.9845C0 40.3582 11.7523 51.9689 26.2312 51.9689C40.7414 51.9689 52.4624 40.3272 52.4624 25.9845C52.4937 11.6418 40.7414 0 26.2312 0ZM38.2656 37.5021C37.7955 38.2782 36.7926 38.4955 36.0091 38.0298C29.8352 34.3045 22.0944 33.4663 12.9432 35.5152C12.0657 35.7015 11.1882 35.1737 11.0002 34.3045C10.8121 33.4352 11.3449 32.566 12.2224 32.3797C22.2197 30.1134 30.8068 31.0758 37.7015 35.2669C38.5163 35.7325 38.767 36.726 38.2656 37.5021ZM41.4935 30.4239C40.8981 31.3863 39.6445 31.6657 38.673 31.1069C31.6216 26.7916 20.8721 25.5498 12.5358 28.0645C11.4389 28.3749 10.3107 27.7851 9.99731 26.7295C9.68392 25.643 10.2794 24.5254 11.3763 24.2149C20.9035 21.3588 32.7498 22.7248 40.8668 27.6609C41.7756 28.2197 42.089 29.4615 41.4935 30.4239ZM41.7756 23.0352C33.3139 18.0681 19.3678 17.6024 11.2822 20.0239C9.99731 20.4275 8.61837 19.6824 8.21096 18.4095C7.80355 17.1367 8.55569 15.7707 9.84062 15.3672C19.1171 12.5731 34.5362 13.1319 44.2514 18.8442C45.411 19.5272 45.7871 21.0173 45.0976 22.166C44.4395 23.3457 42.9352 23.7182 41.7756 23.0352Z" fill="black"/>
</svg>
