<svg width="43" height="42" viewBox="0 0 43 42" fill="none" xmlns="http://www.w3.org/2000/svg">
<path d="M21.1348 0C9.46902 0 0 9.40298 0 20.9875C0 32.597 9.46902 41.9749 21.1348 41.9749C32.8259 41.9749 42.2697 32.5719 42.2697 20.9875C42.2949 9.40298 32.8259 0 21.1348 0ZM30.8311 30.2901C30.4524 30.917 29.6443 31.0925 29.0131 30.7164C24.0387 27.7075 17.8018 27.0304 10.4285 28.6854C9.72153 28.8358 9.0145 28.4095 8.863 27.7075C8.7115 27.0054 9.14076 26.3033 9.84778 26.1528C17.9028 24.3224 24.8215 25.0997 30.3766 28.4848C31.0331 28.8609 31.2351 29.6633 30.8311 30.2901ZM33.4319 24.5731C32.9522 25.3504 31.9422 25.5761 31.1594 25.1248C25.478 21.6394 16.817 20.6364 10.1003 22.6675C9.21651 22.9182 8.30749 22.4418 8.05498 21.5893C7.80247 20.7116 8.28223 19.809 9.16601 19.5582C16.8422 17.2513 26.387 18.3546 32.9269 22.3415C33.6592 22.7928 33.9117 23.7958 33.4319 24.5731ZM33.6592 18.6054C26.8415 14.5934 15.6049 14.2173 9.09026 16.1731C8.05498 16.4991 6.94395 15.8973 6.61569 14.8693C6.28743 13.8412 6.89345 12.7379 7.92872 12.4119C15.4029 10.1552 27.8263 10.6066 35.654 15.2203C36.5883 15.7719 36.8913 16.9755 36.3358 17.9033C35.8055 18.8561 34.5935 19.157 33.6592 18.6054Z" fill="white"/>
</svg>
