<svg width="27" height="26" viewBox="0 0 27 26" fill="none" xmlns="http://www.w3.org/2000/svg">
<path d="M13.7827 0C6.55668 0 0.691406 5.82437 0.691406 13C0.691406 20.1912 6.55668 26 13.7827 26C21.0244 26 26.874 20.1756 26.874 13C26.8896 5.82437 21.0244 0 13.7827 0ZM19.7887 18.7622C19.5541 19.1505 19.0536 19.2593 18.6626 19.0263C15.5814 17.1625 11.7181 16.7431 7.15103 17.7682C6.71309 17.8614 6.27515 17.5974 6.1813 17.1625C6.08746 16.7276 6.35335 16.2927 6.79129 16.1995C11.7807 15.0657 16.0662 15.5472 19.5072 17.644C19.9139 17.8769 20.039 18.374 19.7887 18.7622ZM21.3997 15.221C21.1026 15.7025 20.4769 15.8423 19.9921 15.5627C16.4729 13.4038 11.1081 12.7826 6.9477 14.0406C6.40027 14.1959 5.83721 13.9008 5.6808 13.3728C5.52439 12.8292 5.82157 12.27 6.36899 12.1147C11.1238 10.6858 17.036 11.3692 21.0869 13.8387C21.5405 14.1183 21.6969 14.7395 21.3997 15.221ZM21.5405 11.5245C17.3175 9.03943 10.3574 8.80645 6.32207 10.0179C5.6808 10.2198 4.99261 9.84707 4.78928 9.21027C4.58595 8.57348 4.96133 7.89008 5.6026 7.68817C10.2323 6.29032 17.9275 6.56989 22.7761 9.42772C23.3548 9.76941 23.5425 10.5149 23.1984 11.0896C22.87 11.6798 22.1192 11.8662 21.5405 11.5245Z" fill="#F4B468"/>
</svg>
