<svg width="38" height="26" viewBox="0 0 38 26" fill="none" xmlns="http://www.w3.org/2000/svg">
<path d="M36.9149 4.06824C36.4802 2.47765 35.2073 1.22353 33.5929 0.795294C30.6434 0 18.8455 0 18.8455 0C18.8455 0 7.04767 0 4.09821 0.764706C2.51481 1.19294 1.21083 2.47765 0.776175 4.06824C0 6.97412 0 13 0 13C0 13 0 19.0565 0.776175 21.9318C1.21083 23.5224 2.48376 24.7765 4.09821 25.2047C7.07872 26 18.8455 26 18.8455 26C18.8455 26 30.6434 26 33.5929 25.2353C35.2073 24.8071 36.4802 23.5529 36.9149 21.9624C37.6911 19.0565 37.6911 13.0306 37.6911 13.0306C37.6911 13.0306 37.7221 6.97412 36.9149 4.06824Z" fill="#F4B468"/>
</svg>
